<svg xmlns="http://www.w3.org/2000/svg" viewBox="0 0 508 58"><g fill="none" fill-rule="evenodd"><g fill="#FFF"><path fill-rule="nonzero" d="M37.9 55.2c0 .9-.7 1.6-1.6 1.6h-4.4c-.9 0-1.6-.7-1.6-1.6V2.9c0-.9.7-1.6 1.6-1.6h14.3c9.2 0 16.7 7.5 16.7 16.7s-7.5 16.7-16.7 16.7h-7.5c-.5 0-.8.3-.8.8v19.7zm.8-46.4c-.5 0-.8.3-.8.8v16.7c0 .5.3.8.8.8h7.5c4.8 0 9.1-4 9.1-9.1 0-5-4.1-9.1-9.1-9.1h-7.5v-.1zm51.4 46.8c-.2.7-.8 1.2-1.5 1.2h-4.4c-1.3 0-1.7-.9-1.6-1.6L97.4 2.4c.2-.7.8-1.2 1.5-1.2h5.6c.7 0 1.4.5 1.5 1.2l14.8 52.8c.2.7-.3 1.6-1.6 1.6h-4.4c-.7 0-1.3-.5-1.5-1.2l-4.1-13.8c-.2-.7-.8-1.1-1.5-1.1h-12c-.7 0-1.3.4-1.5 1.1l-4.1 13.8zm6.5-23.2c-.2.6.2.9.6.9h9c.5 0 .8-.2.6-.9L102.1 12c-.1-.3-.2-.5-.3-.5h-.2c-.2 0-.2.2-.3.5l-4.7 20.4zm58.6 22.8c0 .9-.7 1.6-1.6 1.6h-4.4c-.9 0-1.6-.7-1.6-1.6V2.9c0-.9.7-1.6 1.6-1.6h14.3c9.2 0 16.7 7.5 16.7 16.7s-7.5 16.7-16.7 16.7H156c-.5 0-.8.3-.8.8v19.7zm.8-46.4c-.5 0-.8.3-.8.8v16.7c0 .5.3.8.8.8h7.5c4.8 0 9.1-4 9.1-9.1 0-5-4.1-9.1-9.1-9.1H156v-.1z"/><path d="M215.1 23.9c0 .5.3.8.8.8h18.8c.9 0 1.6.7 1.6 1.6v4.4c0 .9-.7 1.6-1.6 1.6h-18.8c-.5 0-.8.3-.8.8v15.5c0 .5.3.8.8.8h19.8c.9 0 1.6.7 1.6 1.6v4.4c0 .9-.7 1.6-1.6 1.6h-26.6c-.9 0-1.6-.7-1.6-1.6V2.9c0-.9.7-1.6 1.6-1.6h26.4c.9 0 1.6.7 1.6 1.6v4.4c0 .9-.7 1.6-1.6 1.6h-19.7c-.5 0-.8.3-.8.8v14.2h.1z"/><path fill-rule="nonzero" d="M275.7 34.6c-.5 0-.8.3-.8.8v19.8c0 .9-.7 1.6-1.6 1.6h-4.4c-.9 0-1.6-.7-1.6-1.6V2.9c0-.9.7-1.6 1.6-1.6h14.3c9.2 0 16.7 7.5 16.7 16.7 0 6-3.4 11.3-8.3 14.2-1.5.9-2.1 1.6-1.3 3l9.4 19.3c.6 1.2.1 2.4-1.5 2.4h-4.4c-1.3 0-1.8-.6-2.3-1.6L282 35.5c-.2-.5-.6-1-1.5-1h-4.8v.1zm0-25.8c-.5 0-.8.3-.8.8v16.7c0 .5.3.8.8.8h7.5c4.8 0 9.1-4 9.1-9.1 0-5-4.1-9.1-9.1-9.1h-7.5v-.1z"/><path d="M337.7 55.2c0 .9-.7 1.6-1.6 1.6h-4.4c-.9 0-1.6-.7-1.6-1.6V2.9c0-.9.7-1.6 1.6-1.6h26.4c.9 0 1.6.7 1.6 1.6v4.4c0 .9-.7 1.6-1.6 1.6h-19.7c-.5 0-.8.3-.8.8V24c0 .5.3.8.8.8h18.8c.9 0 1.6.7 1.6 1.6v4.4c0 .9-.7 1.6-1.6 1.6h-18.8c-.5 0-.8.3-.8.8v22h.1z"/><path fill-rule="nonzero" d="M419.8 17.1c.8 6.3.7 17.5 0 23.8-1 8.7-7.4 16.5-17.8 16.5-9.5 0-16.6-6.3-17.9-16.5-.8-6.4-.8-17.5 0-23.8 1-8.6 7.4-16.5 17.9-16.5 9.4 0 16.5 6.3 17.8 16.5zm-28.2 0c-.8 6.5-.8 17.3 0 23.8.6 4.6 4.1 9 10.3 9 5.3 0 9.5-3.2 10.3-9 1-6.5.9-17.3 0-23.8-.6-4.7-4-9-10.3-9-5.1.1-9.6 3.2-10.3 9z"/><path d="M450.7 55.6c-.4.9-1 1.2-1.7 1.2h-5.2c-1 0-1.8-1.1-1.3-2.2l13.6-26.5c.2-.4.3-.7.1-1.1L443.7 3.5c-.6-1.1.2-2.2 1.3-2.2h5.1c.7 0 1.1.3 1.5 1.2l9 17.2c.2.4.5.4.6 0l9-17.2c.4-.9.8-1.2 1.5-1.2h5.1c1 0 1.8 1.1 1.3 2.2L465.5 27c-.2.4-.2.7.1 1.1l13.6 26.5c.6 1.1-.2 2.2-1.3 2.2h-5.4c-.7 0-1.2-.3-1.6-1.2l-9.8-19.7c-.2-.4-.5-.4-.6 0l-9.8 19.7z"/></g><path fill="#00FF96" d="M.5 16.3H508v25.5H.5z"/></g></svg>