<svg xmlns="http://www.w3.org/2000/svg" width="700" height="232" viewBox="0 0 700 232">
  <g id="Page-1" fill="none" fill-rule="evenodd">
    <g id="Buckley" fill="#FFF">
      <path id="Shape" d="M35.37 66.85c6.25 0 9.55-3.24 9.55-8.92S41.17 49 35.37 49h-20v17.85h20zm-1.93-50.28H15.36v17h18.08c5.8 0 9.55-3 9.55-8.57s-3.75-8.43-9.55-8.43zM.13 1.16h33c16.14 0 25.12 9.27 25.12 23.28 0 6.72-2.39 12.63-7.16 16.34a22.26 22.26 0 0 1 9.09 17.73c0 14.37-8.87 23.75-25.23 23.75H.13V1.16z"/>
      <path id="Path" d="M150.67 1.16v52.25c0 18-10.92 30-30 30s-30-12-30-30V1.16h15.23v52.25c0 9.38 6.48 14.6 14.78 14.6 8.3 0 14.78-5.22 14.78-14.6V1.16h15.21zM243.12 55.15c-.69 17-11.49 28.27-30 28.27-19.1 0-30-12-30-30V30c0-18 10.91-30 30-30 18.52 0 29.32 11.24 30 28.27h-15.35c-.77-8.27-6.94-12.86-14.66-12.86-8.3 0-14.78 5.21-14.78 14.6v23.4c0 9.39 6.48 14.6 14.78 14.6 7.72 0 13.87-4.52 14.66-12.86h15.35z"/>
      <polygon id="Path" points="291.54 86.08 276.38 86.08 276.38 2.26 291.54 2.26 291.54 38.42 320.21 2.26 339.28 2.26 311.85 36.87 342.07 86.08 323.77 86.08 301.58 49.8 291.54 62.37"/>
      <polygon id="Path" points="387.2 70.15 421.36 70.15 421.36 86.08 371.52 86.08 371.52 2.26 387.2 2.26"/>
      <polygon id="Path" points="480.08 35.79 506.05 35.79 506.05 51.71 480.08 51.71 480.08 70.15 514.24 70.15 514.24 86.08 464.4 86.08 464.4 2.26 514.24 2.26 514.24 18.18 480.08 18.18"/>
      <polygon id="Path" points="589.91 86.08 574.49 86.08 574.49 55.54 545.96 2.26 563.44 2.26 582.2 37.22 600.96 2.26 618.45 2.26 589.91 55.54"/>
      <path id="Path" d="M668.88 22.76a18.84 18.84 0 1 1-.32 37.68 18.84 18.84 0 0 1 .32-37.68"/>
      <path id="Shape" d="M35.2 213.88c6.22 0 9.5-3.14 9.5-8.64s-3.73-8.63-9.5-8.63H15.29v17.27H35.2zm-1.92-48.67h-18v16.49h18c5.76 0 9.5-2.92 9.5-8.3 0-5.38-3.78-8.19-9.5-8.19zM.13 150.3h32.81c16.06 0 25 9 25 22.54 0 6.5-2.37 12.22-7.12 15.81 5.54 4.14 9 10.21 9 17.15 0 13.91-8.83 23-25.11 23H.13v-78.5z"/>
      <path id="Path" d="M149.94 150.3v50.57c0 17.38-10.87 29-29.87 29s-29.86-11.66-29.86-29V150.3h15.15v50.57c0 9.08 6.45 14.13 14.71 14.13 8.26 0 14.71-5.05 14.71-14.13V150.3h15.16z"/>
      <polygon id="Path" points="185.76 147.24 185.76 163.17 202.84 163.17 202.84 215.14 185.76 215.14 185.76 231.06 235.6 231.06 235.6 215.14 218.52 215.14 218.52 163.17 235.6 163.17 235.6 147.24"/>
      <polygon id="Path" points="283.17 147.24 283.17 231.06 333.01 231.06 333.01 215.14 298.85 215.14 298.85 147.24"/>
      <path id="Shape" d="M411.48 178.25c0-9.69-7.09-15.08-16.17-15.08h-16.18v52h16.18c9.08 0 16.17-5.4 16.17-15.09v-21.83zm-49 52.81v-83.82h32.85c20.9 0 32.85 12.46 32.85 31v21.8c0 18.56-12 31-32.85 31l-32.85.02z"/>
      <polygon id="Path" points="462.14 147.24 462.14 163.17 479.21 163.17 479.21 215.14 462.14 215.14 462.14 231.06 511.97 231.06 511.97 215.14 494.89 215.14 494.89 163.17 511.97 163.17 511.97 147.24"/>
      <polygon id="Path" points="599.51 147.24 599.51 201.25 567.16 147.24 550.49 147.24 550.49 231.06 567.16 231.06 567.16 177.06 599.51 231.06 616.18 231.06 616.18 147.24"/>
      <path id="Path" d="M667.16 183.33H700v17.58c0 18-12 30.15-32.84 30.15-20.84 0-32.86-12.06-32.86-30.15v-23.52c0-18 12-30.15 32.86-30.15 19.65 0 31.35 10.71 32.71 26.89h-16.79c-1.49-7.33-8-11.4-15.92-11.4-9.09 0-16.18 5.23-16.18 14.66v23.52c0 9.43 7.09 14.66 16.18 14.66s16.17-5.23 16.17-14.66v-2.09h-16.17v-15.49z"/>
      <rect id="Rectangle" width="700" height="15.86" y="104.2" fill-rule="nonzero"/>
    </g>
  </g>
</svg>
