<svg xmlns="http://www.w3.org/2000/svg" viewBox="0 0 700 134.49"><defs><style>.cls-1,.cls-2{fill:#fff;}.cls-1{fill-rule:evenodd;}</style></defs><title>DAF_horizontal</title><g id="Layer_2" data-name="Layer 2"><g id="Layer_1-2" data-name="Layer 1"><path class="cls-1" d="M170.18,49.74V11.43h13.17c12,0,19.76,8.33,19.76,19.18s-7.74,19.13-19.76,19.13Zm28-19.13c0-8.27-5.26-14.93-14.79-14.93H175V45.49h8.38C192.71,45.49,198.14,38.82,198.14,30.61Z"/><polygon class="cls-1" points="231.08 49.73 231.08 33.54 215.89 11.43 221.49 11.43 233.45 29.23 245.41 11.43 251.02 11.43 235.88 33.54 235.88 49.73 231.08 49.73"/><polygon class="cls-1" points="266.97 49.73 266.97 11.43 271.76 11.43 271.76 45.48 289.68 45.48 289.68 49.73 266.97 49.73"/><path class="cls-1" d="M335.16,49.73l-3.41-8.55H312.56l-3.41,8.55h-5.49l15.55-38.3h6l15.49,38.3Zm-13-33.42L314,37h16.35Z"/><polygon class="cls-1" points="384.51 49.73 362.03 19.18 362.03 49.73 357.23 49.73 357.23 11.43 362.14 11.43 384.33 41.35 384.33 11.43 389.13 11.43 389.13 49.73 384.51 49.73"/><path class="cls-1" d="M463.73,49.73l-3.41-8.55H441.14l-3.41,8.55h-5.49l15.54-38.3h6l15.49,38.3Zm-13-33.42L442.58,37h16.35Z"/><polygon class="cls-1" points="485.17 49.73 485.17 11.43 489.97 11.43 489.97 45.48 507.88 45.48 507.88 49.73 485.17 49.73"/><path class="cls-1" d="M522.33,30.61c0-11.77,8.72-19.81,19.82-19.81a17.14,17.14,0,0,1,14.62,7.58l-4,2.24a13,13,0,0,0-10.63-5.57c-8.44,0-14.85,6.37-14.85,15.56s6.41,15.56,14.85,15.56a13.13,13.13,0,0,0,10.63-5.57l4.05,2.19a17.38,17.38,0,0,1-14.68,7.63c-11.1,0-19.82-8-19.82-19.81"/><path class="cls-1" d="M573,30.61c0-11.31,7.74-19.81,19.13-19.81s19.18,8.5,19.18,19.81-7.8,19.81-19.18,19.81S573,41.93,573,30.61m33.34,0c0-9-5.6-15.56-14.21-15.56s-14.16,6.6-14.16,15.56,5.49,15.56,14.16,15.56,14.21-6.66,14.21-15.56"/><polygon class="cls-1" points="638.25 49.73 638.25 15.68 626.06 15.68 626.06 11.43 655.29 11.43 655.29 15.68 643.04 15.68 643.04 49.73 638.25 49.73"/><polygon class="cls-1" points="682.75 49.73 682.75 15.68 670.55 15.68 670.55 11.43 699.79 11.43 699.79 15.68 687.54 15.68 687.54 49.73 682.75 49.73"/><polygon class="cls-1" points="174.2 122.92 174.2 80 204.76 80 204.76 88.04 183.39 88.04 183.39 97.05 204.31 97.05 204.31 105.09 183.39 105.09 183.39 122.92 174.2 122.92"/><path class="cls-1" d="M222.05,101.49c0-12.93,9.51-22.2,22.59-22.2s22.53,9.27,22.53,22.2-9.51,22.2-22.53,22.2-22.59-9.26-22.59-22.2m35.67,0c0-8-5.11-14.09-13.08-14.09s-13.14,6-13.14,14.09,5.11,14.09,13.14,14.09,13.08-6.11,13.08-14.09"/><path class="cls-1" d="M286.6,105.74V80h9.32v25.48c0,6,3.5,10.1,10.17,10.1s10.1-4.12,10.1-10.1V80h9.39v25.74c0,10.62-6.35,18-19.49,18s-19.49-7.33-19.49-18"/><polygon class="cls-1" points="376.85 122.92 356.26 94.93 356.26 122.92 347.07 122.92 347.07 80 356.52 80 376.53 106.96 376.53 80 385.72 80 385.72 122.92 376.85 122.92"/><path class="cls-1" d="M407.22,122.92V80h17c13.53,0,22.92,8.56,22.92,21.43s-9.39,21.49-22.86,21.49Zm30.56-21.49c0-7.53-4.66-13.39-13.47-13.39h-7.9v26.84h7.84C432.79,114.88,437.78,108.76,437.78,101.43Z"/><path class="cls-1" d="M494.3,122.92l-2.72-7.27H473.07l-2.72,7.27H459.92L476.56,80h11.53l16.64,42.92Zm-12-33.78-6.73,18.46h13.47Z"/><polygon class="cls-1" points="527.52 122.92 527.52 88.04 514.89 88.04 514.89 80 549.34 80 549.34 88.04 536.78 88.04 536.78 122.92 527.52 122.92"/><rect class="cls-2" x="568.18" y="80" width="9.19" height="42.92"/><path class="cls-1" d="M596.79,101.49c0-12.93,9.52-22.2,22.6-22.2s22.53,9.27,22.53,22.2-9.52,22.2-22.53,22.2-22.6-9.26-22.6-22.2m35.68,0c0-8-5.12-14.09-13.08-14.09s-13.14,6-13.14,14.09,5.11,14.09,13.14,14.09,13.08-6.11,13.08-14.09"/><polygon class="cls-1" points="691.13 122.92 670.54 94.93 670.54 122.92 661.35 122.92 661.35 80 670.8 80 690.8 106.96 690.8 80 700 80 700 122.92 691.13 122.92"/><path class="cls-1" d="M90.93,61.36A37.08,37.08,0,0,1,117.05,72a36.64,36.64,0,0,1,10.67,26v36.56h-7.36V119.86a37.17,37.17,0,0,1-12.8,10.61,35.78,35.78,0,0,1-16.63,4A36.32,36.32,0,0,1,57,112.33a37.41,37.41,0,0,1,0-28.74A36.25,36.25,0,0,1,64.81,72a36.7,36.7,0,0,1,26.12-10.6Zm0,65.82a28.31,28.31,0,0,0,11.41-2.34A29.79,29.79,0,0,0,118,109.26a28.51,28.51,0,0,0,0-22.67A29.79,29.79,0,0,0,102.34,71a29,29,0,0,0-22.82,0A29.79,29.79,0,0,0,63.85,86.59a28.51,28.51,0,0,0,0,22.67,29.79,29.79,0,0,0,15.67,15.58A28.27,28.27,0,0,0,90.93,127.18Z"/><path class="cls-1" d="M0,59.92A36.64,36.64,0,0,1,10.67,34,36.81,36.81,0,0,1,36.79,23.35a35.67,35.67,0,0,1,16.63,4A37.27,37.27,0,0,1,66.23,38V10.19h7.35V59.92a35.81,35.81,0,0,1-2.87,14.4,35.9,35.9,0,0,1-19.5,19.31,36.77,36.77,0,0,1-14.42,2.85A36.32,36.32,0,0,1,2.87,74.32,36,36,0,0,1,0,59.92m7.36,0A27.71,27.71,0,0,0,9.71,71.25,29.76,29.76,0,0,0,25.39,86.83a29,29,0,0,0,22.81,0A29.79,29.79,0,0,0,63.87,71.25a28.4,28.4,0,0,0,0-22.67A29.82,29.82,0,0,0,48.2,33a29,29,0,0,0-22.81,0A29.79,29.79,0,0,0,9.71,48.58,27.79,27.79,0,0,0,7.36,59.92"/><rect class="cls-2" x="66.22" width="7.36" height="10.19"/></g></g></svg>