<svg xmlns="http://www.w3.org/2000/svg" width="153" height="63" viewBox="0 0 153 63">
  <g id="Welcome" fill="none" fill-rule="evenodd">
    <g id="home-copy-5" fill="#FFF" transform="translate(-1139 -6142)">
      <g id="Group-2" transform="translate(871 5809)">
        <g id="Page-2" transform="translate(268 332)">
          <g id="Page-1">
            <path id="Fill-1" d="M141.87 61.64c-3.67 1.33-7.25 2-10.91 2-7.42 0-14.09-2.42-19.25-6.92-5.75-5-9.08-12.66-9.08-21 0-8.82 2.75-16.65 8.16-22.99 6.33-7.41 15.67-11.66 26.5-11.66 5.66 0 10.66 1.17 15.16 3.42l-3.67 19.9c-4.08-2.33-7.91-3.57-11.83-3.57-7.5 0-12.83 5.33-12.83 12.74 0 6.33 4.09 10.25 10.42 10.25 3.33 0 7.5-1.25 11.33-3.67l-4 21.5z"/>
            <polygon id="Fill-4" points="20.41 54.65 5.75 54.65 .83 48.98 .83 14.99 5.75 9.32 20.41 9.32 25.33 14.99 25.33 22.5 18.19 22.5 18.19 17.18 7.97 17.18 7.97 46.79 18.5 46.79 18.5 37.01 13.08 37.01 13.08 29.29 25.33 29.29 25.33 48.98"/>
            <polygon id="Fill-7" points="32.78 54.65 32.78 9.32 57.29 9.32 57.29 17.18 39.92 17.18 39.92 27.95 50.14 27.95 50.14 36.02 39.92 36.02 39.92 46.79 57.29 46.79 57.29 54.65"/>
            <polygon id="Fill-9" points="82.63 54.65 71.67 28.23 71.67 54.65 64.65 54.65 64.65 9.32 71.18 9.32 82.14 35.74 82.14 9.32 89.16 9.32 89.16 54.65"/>
          </g>
        </g>
      </g>
    </g>
  </g>
</svg>
