<svg xmlns="http://www.w3.org/2000/svg" viewBox="0 0 700 214.5"><defs><style>.cls-1{fill:#fff;}</style></defs><title>Miagi</title><g id="Layer_2" data-name="Layer 2"><g id="Layer_1-2" data-name="Layer 1"><path class="cls-1" d="M44.76,121.64C27.3,147.37,19.28,175.67,24,183c16.38-10.22,24.59-55.24,20.74-61.35Zm-25.31-72,4.78,1.12A67.44,67.44,0,0,0,13,66.25C5.53,81.38,14.83,90,26.4,87,39.05,83.7,54.67,69.41,56.62,66.43c.7-1,4-1.08,4.89-.05l-1.8,18.49c8.47-9.68,16-15.17,23.66-15,6.17.15,14.29,8.63,15.89,21.62,14.46-18.76,24.47-32.33,40.09-28.26,14.92,3.86,20.07,15.57,13.86,40.22-4.1,16.3-17.59,41-23.9,62.55-9.94,33.86,6.31,44.53,16,42.38,8.35-1.78,16.91-11.54,21.94-23.24,4.37,4.92,3.25,15.22-3.49,21.73-11,10.62-39.19,15.07-46.24-21-6.65-34,18-78.82,25.2-106.18,5.09-19.27-10.24-16.24-18.19-9-3.5,3.18-7.37,8.21-11.38,16-10.47,20.44-25.84,77.18-30.27,82.54l-10-1.76c1.92-7.92,15.36-64,15.55-80,.28-24.15-21.31-19.5-31.87,32.66-2,23.77-5.41,61.07-26,64.34C11.91,187.34,17.19,159,23.4,146.23c14.93-30.69,28-43.12,25-64.7-6.13,3-14.89,7.44-23.36,9C4.82,94.07-3.08,73.59,1.07,63.87,3.72,57.49,10.54,53,19.45,49.61Z"/><path class="cls-1" d="M177.94,100c1.44-3.17,3.58-13.54.16-13.75-3.09-.2-3.13,10.23-.16,13.75m51.22,13.39c1.13,1.81.63,5.49-.83,9.89-5,15.09-19.79,35.8-30.19,37.44a7,7,0,0,1-4.45-.7c-12-5.89-8.8-17.78-3-36,0,0-2.21-4.61-10.67-7.88-.11.18-11.63,33.19-20.58,33.11,10.52-17.35,13.42-36.18,14.39-40.28-5.6-3.81-7.58-14.29-3.69-20.41C174.93,81,184,79.88,185,90.3a43.53,43.53,0,0,1-3.19,19.63c9.65,4.81,20.4,7.26,19.25,15.43s-7.11,23.74-6.75,29.21c.09,1.24.71,1.7,1.73,1.54,6.89-1.09,28.75-32.35,33.11-42.69"/><path class="cls-1" d="M328.54,76.88c-17.46,25.73-25.49,54-20.75,61.35C324.18,128,332.38,83,328.54,76.88m-25.32-72L308,6a67.68,67.68,0,0,0-11.27,15.53c-7.43,15.13,1.87,23.73,13.44,20.72,12.64-3.28,28.27-17.56,30.22-20.55.7-1,4-1.09,4.88-.05l-1.8,18.49c8.48-9.68,16-15.16,23.68-15,6.16.16,14.28,8.63,15.88,21.62C397.5,28,407.51,14.44,423.14,18.51c14.91,3.86,20.07,15.58,13.86,40.23-4.11,16.29-17.61,41-23.92,62.54-9.93,33.86,6.31,44.54,16,42.38,8.37-1.78,16.91-11.54,22-23.23,4.36,4.92,3.24,15.21-3.5,21.72-11,10.62-39.19,15.07-46.25-21-6.64-34,18-78.82,25.21-106.19,5.1-19.27-10.25-16.23-18.18-9-3.52,3.18-7.39,8.21-11.38,16-10.48,20.44-25.85,77.18-30.27,82.54l-10.05-1.76c1.91-7.91,15.35-64,15.54-80.05.29-24.15-21.32-19.49-31.87,32.66-2,23.78-5.4,61.08-26,64.35-18.55,2.94-13.28-25.43-7.07-38.18,14.93-30.69,28-43.11,25-64.69-6.13,3-14.9,7.44-23.37,8.94-20.19,3.59-28.07-16.89-23.94-26.61,2.67-6.38,9.49-10.85,18.38-14.26"/><path class="cls-1" d="M468.94,34.47c2.29,1.88,2.82,5.27.38,7.14s-8,1.27-7.8-3.73c.19-4.66,5.13-5.29,7.41-3.41ZM454.82,66s13.65-5.92,10.82,3-7.38,30.82-8.77,38.34-.15,12.51,5.69,7.8S487,83,487,83c5,4.86-17.27,35.58-27.65,37.33-6.09,1.06-13.13-1.93-12.72-13.52.56-15.85,8.16-40.81,8.16-40.81Z"/><path class="cls-1" d="M505.79,136.78c-11.21,4.41-19.26,18-20.19,25.14-1.05,8.26,5,15.72,10.75,5.31,4.5-8.18,7.31-18.9,9.45-30.46Zm14.42-80.64c0-.28,11.43-6.39,10.11,3.83-.92,7.15-7.86,42.32-14.2,70.34,9.86,1.57,16,9.63,13.33,12.7-5-4.82-9.89-7-14.51-7.52-2.53,11-4.88,20.39-6.65,25.81-3.51,11.14-12.78,18.83-21.63,12.13-8.86-6.54-7.13-24.26,9.68-37.34a29,29,0,0,1,10.54-5.25c2.48-14.56,4.23-29.69,7.43-41.42C508.69,100,502,116,489.78,113.8c-4.66-.83-7.1-4.2-7.87-9.07-2.24-14.22,8.65-28,10.21-45.88,9.35,3.64,6,16.26-.17,33.52-2.81,7.9-4.34,15.2-2,17.82,2.9,3.21,9-2,13-7.89C510.64,91.24,518.24,65.81,520.21,56.14Z"/><path class="cls-1" d="M551.36,99.92c2.44.41,5.73-2,8.16-5.82,4.41-7,7.81-17.88,9.06-22,1.76-5.75.65-19.49-2.56-20.71-8.28-3.15-25.52,46.76-14.66,48.53m5-51.74c9.42-2.92,14.81,0,17.62,15.37,0,0,2.32-3.54,4.78-17.41l-.32,0s12.18-4.77,10.33,5.07c-4.54,24.28-12.73,42.44-8,44.57,5.42,2.38,27-26.23,30.05-31.16,2.91,6.71-16.31,32.26-23.78,35a13.82,13.82,0,0,1-11-.51c-6.63-3.35-5.26-9.66-5.49-18.3-4.66,5.54-8.29,21.8-18.6,23.65-6.87,1.2-22.87-5.82-10.25-36.9,3.84-9.49,9.25-17.8,14.61-19.47"/><path class="cls-1" d="M627.63,41.09c-3.25-.6-7.06,3.12-10.89,17.51-3.89,14.61-3,28.36,2.53,30.06,7.25,2.24,15.38-22.12,16.58-30.14s-4.94-16.84-8.22-17.43m-.88,78.16a37.13,37.13,0,0,0-12.93,28.35c0,6.23,4.24,7.43,6.52-.56,1.12-4.07,3.54-14.57,6.41-27.79M621.43,36c11.66-3,15.65,11.6,19.8,14.94L644.62,34c.06-.34,11.33-5.87,8.52,5.16-2.9,11.42-9,43.22-14.25,68.86,15.27-4.27,13.12,4,12.53,5.65-2.5-1.31-6.72-3.76-13.48-1.14-2.91,14.15-5.51,25.63-7,29.91-5.18,15.15-15.63,17.89-20.52,6.83-4.73-10.47.57-26.57,17.81-36.6,2.73-12.43,5.68-26.38,8.4-39.32-7.53,3.61-4.11,17.45-15,19.53-6.84,1.3-16.32-4-17.58-16.88-1.65-16.82,6.22-37.18,17.39-40"/><path class="cls-1" d="M681.18,1c2.29,1.88,2.82,5.28.38,7.15s-8,1.26-7.79-3.73C674-.26,678.9-.89,681.18,1ZM667.06,32.5s13.65-5.92,10.82,3-7.37,30.82-8.78,38.33-.13,12.51,5.71,7.81S699.28,49.5,699.28,49.5c5,4.86-17.28,35.57-27.65,37.33-6.1,1.06-13.13-1.93-12.73-13.52.56-15.85,8.16-40.81,8.16-40.81Z"/></g></g></svg>