<svg xmlns="http://www.w3.org/2000/svg" viewBox="0 0 700 108.72"><defs><style>.cls-1{fill:#fff;}</style></defs><title>SA</title><g id="Layer_2" data-name="Layer 2"><g id="Layer_1-2" data-name="Layer 1"><path class="cls-1" d="M551.92,28.4a14,14,0,0,0,14.34-14.2A14,14,0,0,0,551.92,0c-8.09,0-14.48,6-14.48,14.2A14.13,14.13,0,0,0,551.92,28.4Z"/><path class="cls-1" d="M647.19,101.34l-4.76,5h-1V81.61h1c5.68,10.93,15.83,24.2,27.47,24.2,9,0,12.49-4.4,12.49-10.22,0-6.53-6-9.94-20.44-14.9-9.51-3.27-18.6-8.66-18.6-21.87,0-12.78,10.79-21.44,26.55-21.44,9.37,0,17.75,2.13,21.73,3.84l4.15-3.71h1V59.67h-1C686.84,44.62,678.56,39,670.61,39c-5.25,0-9.51,3.54-9.51,8.8,0,7.38,8.8,10.36,19.88,14,12.49,4.12,19,10.51,19,22.15,0,15.76-16,23.42-30.81,23.42C660.11,107.37,650,103.61,647.19,101.34Z"/><path class="cls-1" d="M60.38,49.48c-4.54-2-11.64-3.69-17.32-5.82C32.41,39.82,24.6,35.14,24.6,25.06c0-8.66,6.54-17.18,18-17.18C57.83,7.88,65.21,22.93,73,40.67h1.6L74.65,7H73l-5.55,5.26c-4.82-3-16.33-6.39-26.83-6.39-21.3,0-39,9.94-39,30.1,0,13.2,6.82,22.86,18.89,28,4.4,1.84,10.5,3.41,16.75,5.68C51.58,74.75,55.7,79.86,55.7,88.24s-4.4,17.18-19.31,17.18S12.07,91.5,1.56,70.63H0V106.4H1.59L7.14,100c5.11,2.84,15.33,7.38,30.24,7.38,24.71,0,42.17-13.77,42.17-31.09C79.55,61.26,71.46,54.16,60.38,49.48Z"/><path class="cls-1" d="M283.23,103.47a13.72,13.72,0,0,1-5.82-7.38c-2.56-6.11-27-71.42-33.65-88.17H230.84c-4.83,12.35-28.25,73-32.66,83.91-1.19,2.89-1.76,4.31-3.87,9.13-2.41,5-9.57,6.51-14.74.06-3.68-4.6-10.14-13.06-16.83-21.83,7.53-9.23,15.76-23.14,19.17-27.4,2.84-3.55,8.8-4.69,16.9-5.54v-1H160.19v1c9.79,2,15.9,2.13,15.9,5.11,0,5.68-7.67,16.76-14.77,25.7C153.8,67.55,145.7,56.48,139,46.4c10.08-6.25,18-13.64,18-22,0-10.65-8.1-16.9-20.17-16.9-18,0-32.22,7.53-32.22,23.29,0,8.51,3.12,14.9,10.78,25.27-18.31,7.38-28.68,15-28.68,29.25,0,16.32,13.92,23.42,30,23.42,10.08,0,22.29-6,29.11-12.78l8.8,10.51h63v-1c-4.82-.43-16-1.14-16.75-6.11-.28-1.84.28-5.11,1.56-8.8L208.83,72h29.25L247,97.51a8.39,8.39,0,0,1,.57,3c0,3.55-9.94,4.54-14.76,5v1H290.9v-1C288.48,105.18,285.78,105,283.23,103.47ZM138.61,9.34C144.43,9.34,149,15,149,26.09c0,8-3.27,13.77-10.93,18.74-5.11-7.66-9.66-15.33-9.66-21.72C128.38,14.31,132.5,9.34,138.61,9.34Zm-8.8,90.58c-9.24,0-18.18-8.09-18.18-22,0-8.81,2-15.48,4.83-20.31,4.54,6.25,17.18,22.86,28,36.49A20,20,0,0,1,129.81,99.92ZM210,69.25l13.49-35.78,13.77,35.78Z"/><path class="cls-1" d="M378.19,49.48c-4.54-2-11.64-3.69-17.32-5.82-10.65-3.84-18.46-8.52-18.46-18.6,0-8.66,6.54-17.18,18-17.18,15.19,0,22.57,15.05,30.38,32.79h1.6l0-33.65h-1.62l-5.55,5.26c-4.82-3-16.33-6.39-26.83-6.39-21.3,0-39,9.94-39,30.1,0,13.2,6.82,22.86,18.89,28,4.4,1.84,10.5,3.41,16.75,5.68,14.34,5.11,18.46,10.22,18.46,18.6s-4.4,17.18-19.31,17.18S329.88,91.5,319.37,70.63h-1.56V106.4h1.59L325,100c5.11,2.84,15.33,7.38,30.24,7.38,24.71,0,42.17-13.77,42.17-31.09C397.36,61.26,389.27,54.16,378.19,49.48Z"/><path class="cls-1" d="M628.49,37.83c-6.81,0-12.63,4-18.31,11.36h-.28V38.12l-.57-.57-34.79,1.7v.86c6.26,0,10.51,3.65,10.51,9.42v47.8c0,7.61-6.92,8.07-9.24,8.07s-9.7-.46-9.7-8.07V38.12l-.56-.57-36.21,1.7v.86c8.16,0,11.93,4.36,11.93,9.9V97.33c0,7.61-7.42,8-9.54,8-2.3,0-9.4-.36-9.4-7.94V56.71c0-18.88-16.75-21.3-32-21.3-12.2,0-29.67,6-29.67,15.62,0,5.11,3.13,10.79,11.22,10.79s12.92-5,12.92-8.94c0-4.83-2.41-11.22-2.84-13.77C483.29,38,485.7,37,489.25,37c7.72,0,8.09,6.72,8.09,12.45V64.24c-3.55,2.69-19.9,5.47-28.39,8.66-6.05,2.26-13.4,8.08-13.4,17.91,0,6.56-6.67,8-9.58,8-8.81,0-9.45-7.6-9.45-11.72V40.64h17.89V38.08H436.52V18.52H412V38.08H399.61v2.56h12.07V86.1c0,12.64,7.31,21.35,22.36,21.32,15.33,0,21.9-11,22.22-11.71.55,1.35,2.55,11.71,20.78,11.71,11.78,0,15.15-5.2,20.33-10.38,0,0,4,9.36,19.78,9.36H623v-1c-9.11,0-13.06-1.92-13.06-8.15V51.74c1.13-2,5.53-6.67,11.64-6.81-.43,1.7-2.13,6.25-2.13,8.8,0,5.82,4.4,9.23,10.5,9.23,6.54,0,10.94-5.54,10.94-12.21C640.85,42.94,635.59,37.83,628.49,37.83ZM497.29,94a10,10,0,0,1-8.18,4.86c-4.83,0-7.67-4.26-7.67-12.64,0-11.92,6.58-16.21,15.85-20Z"/></g></g></svg>