<svg xmlns="http://www.w3.org/2000/svg" viewBox="0 0 700 309.44"><defs><style>.cls-1,.cls-2{fill:#fff;}.cls-1{fill-rule:evenodd;}</style></defs><title>Studyloans</title><g id="Layer_2" data-name="Layer 2"><g id="Layer_1-2" data-name="Layer 1"><path class="cls-1" d="M700,3.05H662L628.07,63.22,594.31,3.05h-38L611,99.6v41.66h34.55V99.6ZM461.39,110.36V34h21.34c22.36,0,39.64,16.46,39.64,37.8,0,22-17.28,38.61-39.64,38.61ZM427,3.05V141.26h55.69c43.29,0,74.59-28.46,74.59-69.51,0-40.44-31.3-68.7-74.59-68.7Zm-26.43,0H366.08v74.4c0,21.13-11.81,34.74-29.89,34.74s-29.67-13.61-29.67-34.74V3.05H272V76.83c0,42.89,24.81,67.48,64.24,67.48,39.64,0,64.42-24.59,64.42-67.48ZM254.9,33.75V3.05H132.53v30.7h44.1V141.26H211V33.75ZM60.37,0C27.85,0,5.49,17.49,5.49,45.12c0,21.95,12.81,34.76,40.05,40.65L68.3,90.86C80.08,93.09,82.93,98,82.93,102.65c0,7.51-6.7,12.2-19.51,12.2-16.26,0-26.82-7.32-29.07-19.52H0c3.26,34.14,31.3,48.78,62.4,48.78,34.55,0,57.33-17.28,57.33-44.92,0-23.79-16.48-33.94-41.68-39.43l-19.3-4.47c-10.36-2.23-15.86-5.49-15.86-13,0-9,7.94-13.82,19.72-13.82,14,0,20.52,7.11,22.36,17.47h34.54C116.06,8.74,82.73,0,60.37,0Z"/><path class="cls-1" d="M614.74,172.69c-17.44,0-29.44,9.38-29.44,24.22,0,11.76,6.87,18.64,21.48,21.8L619,221.44c6.34,1.21,7.85,3.82,7.85,6.33,0,4-3.59,6.53-10.48,6.53-8.7,0-14.38-3.92-15.59-10.47H582.37c1.74,18.33,16.78,26.18,33.46,26.18,18.55,0,30.76-9.28,30.76-24.1,0-12.76-8.84-18.21-22.35-21.16l-10.36-2.4c-5.56-1.19-8.52-2.93-8.52-7,0-4.8,4.26-7.41,10.6-7.41,7.51,0,11,3.81,12,9.37h18.55C644.62,177.38,626.75,172.69,614.74,172.69Zm-44.27,1.64H552V216.1l-35.78-41.77H502.2v74.15h18.43V207.8l35.55,40.68h14.29ZM462.51,220H443.32l9.58-24.64Zm6.1,15.71,5,12.75h19.52l-31.4-74.59H444.18l-31.52,74.59h19.65l4.91-12.75Zm-96.41-2.84c-12,0-20.59-9.83-20.59-21.49s8.62-21.48,20.59-21.48,20.63,9.82,20.63,21.48S384.2,232.89,372.2,232.89Zm0-60.08c-22.34,0-39.26,17-39.26,38.59S349.86,250,372.2,250s39.37-17,39.37-38.61S394.67,172.81,372.2,172.81Zm-43.61,59.42H292v-57.9H273.52v74.15h55.07Z"/><rect class="cls-2" x="273.51" y="274.44" width="373.07" height="34.99"/></g></g></svg>